<?xml version="1.0" standalone="no"?>
<!DOCTYPE svg PUBLIC "-//W3C//DTD SVG 20010904//EN"
 "http://www.w3.org/TR/2001/REC-SVG-20010904/DTD/svg10.dtd">
<svg version="1.0" xmlns="http://www.w3.org/2000/svg"
 width="2048.000000pt" height="2048.000000pt" viewBox="0 0 2048.000000 2048.000000"
 preserveAspectRatio="xMidYMid meet">

<g transform="translate(0.000000,2048.000000) scale(0.100000,-0.100000)"
fill="#000000" stroke="none">
<path d="M11554 11351 c-64 -29 -97 -81 -102 -156 -8 -117 65 -199 177 -200
75 0 126 26 162 84 100 157 -69 351 -237 272z"/>
<path d="M13260 11293 c-507 -54 -889 -378 -1017 -860 -22 -85 -26 -119 -27
-263 -1 -199 6 -270 39 -386 98 -335 376 -618 723 -734 137 -45 257 -63 432
-64 293 0 537 72 778 231 l82 54 0 325 0 324 38 -6 c20 -3 93 -13 162 -22
l125 -17 8 -85 c34 -388 272 -672 647 -772 122 -33 348 -33 468 0 325 88 562
332 626 644 20 99 20 267 0 366 -55 270 -240 502 -482 601 -296 122 -649 95
-894 -70 -58 -39 -218 -192 -218 -209 0 -4 68 -10 151 -14 l151 -8 52 35 c122
81 236 117 371 117 347 0 614 -254 632 -599 16 -311 -171 -569 -467 -646 -82
-21 -234 -21 -315 0 -174 45 -327 168 -404 325 -87 179 -95 382 -22 553 12 27
21 51 21 53 0 2 -332 4 -739 4 l-739 0 -13 -32 c-19 -45 -16 -145 5 -185 l17
-33 279 0 280 0 -2 -257 -3 -257 -55 -33 c-144 -87 -334 -135 -535 -135 -283
0 -506 90 -687 280 -95 99 -147 187 -195 327 l-37 110 0 185 c0 161 3 196 22
265 43 153 115 276 228 388 164 162 367 245 629 254 263 10 467 -54 649 -203
32 -26 61 -43 66 -38 5 5 41 50 80 99 l72 90 -51 45 c-99 89 -276 179 -434
219 -135 35 -352 50 -497 34z"/>
<path d="M4130 10156 l0 -1126 140 0 140 0 0 410 0 410 339 0 338 0 134 -197
c74 -109 197 -293 274 -410 l140 -212 163 -3 c89 -2 162 -2 162 0 0 1 -123
185 -272 409 -150 224 -281 420 -291 434 l-18 27 65 19 c150 46 315 179 383
308 158 302 78 712 -177 900 -70 51 -180 103 -272 127 -80 21 -104 22 -665 25
l-583 4 0 -1125z m1148 851 c181 -48 293 -156 337 -322 51 -196 -36 -422 -194
-508 -27 -15 -85 -37 -128 -49 -72 -19 -109 -21 -480 -26 l-403 -4 0 465 0
465 403 -2 c339 -2 412 -5 465 -19z"/>
<path d="M10349 11110 c-1 -3 -1 -103 1 -222 l2 -218 -141 0 -141 0 0 -110 0
-109 136 -3 135 -3 -1 -510 c0 -296 4 -541 10 -582 23 -164 85 -259 206 -319
69 -34 86 -39 172 -42 55 -3 119 1 151 8 66 14 170 67 225 113 l39 33 -47 80
-46 80 -79 -39 c-68 -34 -89 -40 -148 -41 -105 -1 -167 42 -200 139 -16 45
-18 100 -18 565 l0 515 243 3 242 2 0 110 0 110 -245 0 -245 0 0 219 0 220
-125 3 c-69 2 -126 1 -126 -2z"/>
<path d="M8984 10696 c-92 -18 -135 -32 -209 -69 -79 -39 -160 -104 -210 -167
l-40 -51 -3 136 -3 135 -129 0 -130 0 2 -826 3 -826 128 -1 c70 -1 127 -2 128
-2 0 0 3 221 6 490 5 536 8 566 64 677 17 34 58 90 90 124 103 107 208 148
379 148 82 0 119 -4 170 -22 117 -40 201 -123 252 -250 23 -57 23 -58 26 -609
l3 -553 134 0 135 0 0 528 c0 548 -5 629 -45 747 -66 195 -211 329 -410 380
-86 22 -255 27 -341 11z"/>
<path d="M6860 10684 c-268 -57 -492 -242 -589 -486 -52 -130 -65 -198 -65
-358 0 -109 5 -162 18 -215 66 -247 207 -428 418 -534 141 -70 230 -92 403
-98 106 -4 162 -1 230 12 173 32 330 112 439 224 l50 50 -64 68 c-35 38 -67
72 -72 78 -5 5 -23 -6 -46 -27 -202 -194 -535 -241 -798 -113 -92 45 -156 103
-216 194 -47 71 -98 206 -98 257 l0 24 699 0 c628 0 699 2 705 16 18 46 -3
267 -35 370 -90 295 -310 490 -613 543 -83 15 -288 12 -366 -5z m345 -219
c144 -37 283 -141 347 -260 28 -52 68 -183 68 -222 l0 -23 -575 0 -575 0 0 26
c0 47 51 178 96 246 25 37 66 86 92 108 61 52 173 107 254 125 85 18 221 18
293 0z"/>
<path d="M11500 9855 l0 -825 130 0 130 0 0 825 0 825 -130 0 -130 0 0 -825z"/>
<path d="M15371 10329 c-135 -26 -273 -132 -329 -251 -131 -278 -5 -599 276
-700 78 -28 234 -30 312 -4 212 70 341 248 341 470 1 194 -95 361 -255 443
-91 46 -235 64 -345 42z"/>
</g>
</svg>
